PathFileType   4   (X/Y/Z)																																																																																																																						
DataRate	CameraRate	NumFrames	NumMarkers	Units	OrigDataRate	OrigDataStartFrame	OrigNumFrames																																																																																																															
120	120	5	37	mm	120	59	116																																																																																																															
Frame#	Time	Sternum	R.Acromium	L.Acromium	Top.Head	R.ASIS	L.ASIS	V.Sacral	R.Thigh.Upper	R.Thigh.Front	R.Thigh.Rear	R.Knee.Lat	R.Knee.Med	R.Shank.Upper	R.Shank.Front	R.Shank.Rear	R.Ankle.Lat	R.Ankle.Med	R.Heel	R.Midfoot.Sup	R.Midfoot.Lat	R.Toe.Lat	R.Toe.Med	R.Toe.Tip	L.Thigh.Upper	L.Thigh.Front	L.Thigh.Rear	L.Knee.Lat	L.Knee.Med	L.Shank.Upper	L.Shank.Front	L.Shank.Rear	L.Ankle.Lat	L.Ankle.Med	L.Heel	L.Midfoot.Sup	L.Midfoot.Lat	L.Toe.Lat	L.Toe.Med	L.Toe.Tip																																																																														
 	 	X1	Y1	Z1	X2	Y2	Z2	X3	Y3	Z3	X4	Y4	Z4	X5	Y5	Z5	X6	Y6	Z6	X7	Y7	Z7	X8	Y8	Z8	X9	Y9	Z9	X10	Y10	Z10	X11	Y11	Z11	X12	Y12	Z12	X13	Y13	Z13	X14	Y14	Z14	X15	Y15	Z15	X16	Y16	Z16	X17	Y17	Z17	X18	Y18	Z18	X19	Y19	Z19	X20	Y20	Z20	X21	Y21	Z21	X22	Y22	Z22	X23	Y23	Z23	X24	Y24	Z24	X25	Y25	Z25	X26	Y26	Z26	X27	Y27	Z27	X28	Y28	Z28	X29	Y29	Z29	X30	Y30	Z30	X31	Y31	Z31	X32	Y32	Z32	X33	Y33	Z33	X34	Y34	Z34	X35	Y35	Z35	X36	Y36	Z36	X37	Y37	Z37	X38	Y38	Z38	X39	Y39	Z39
																																																																																																																						
59	0.61667	1208.753979	-0.000992919	1.22E+03	1098.109527	-160.4625222	1341.457731	1102.205925	163.6853836	1354.76362	1204.398382	-9.995724821	1591.957102	1193.395606	-119.563877	884.4051653	1198.647681	121.1976851	876.5278189	1014.79575	-5.695750883	899.2657698	1215.414018	-151.852957	647.4290382	1279.990358	-72.89581202	621.2243299	1249.432356	-144.0380039	552.8024651	1249.291724	-128.7803171	474.6880726	1253.762755	-28.27664901	461.5242255	1245.920102	-139.9773559	397.415295	1314.553979	-92.759033	376.2693434	1269.814101	-148.0192813	326.1494763	1306.129425	-126.2596959	81.29722836	1311.064473	-48.83628676	94.70040161	1245.693713	-81.79932302	58.40660755	1371.959092	-50.48617332	76.88886902	1368.461796	-145.6838404	59.09287572	1449.143162	-153.7519611	43.11800065	1450.439911	-57.55224411	54.827266	1504.353465	-85.7250635	58.82110172	1102.537338	155.8898652	620.3482098	1161.171455	93.1736068	576.0943548	1080.306694	143.1256019	532.6544979	1041.668095	130.2344758	429.7672589	1042.763498	33.90932835	430.1895244	1004.328377	146.028905	370.0652266	1005.837898	97.96343807	312.2632926	968.8298699	155.397025	351.0088648	805.2582089	125.837295	132.9903075	820.9399345	46.58044596	146.2076176	746.0107699	79.29350631	174.2892107	854.3337384	55.87355549	66.3532679	842.9548018	143.3687015	78.03938172	867.332744	152.6622596	23.44575945	877.8675131	62.03409965	12.60086988	908.8442668	84.48225282	-18.15667933
60	0.625	1219.437689	-0.000992919	1.22E+03	1108.710488	-160.4625222	1342.391112	1112.797733	163.6853836	1355.699815	1214.827043	-9.995724821	1592.963522	1204.41367	-119.563877	885.633536	1209.68713	121.1976851	877.7704893	1025.774095	-5.695750883	900.0088018	1226.273186	-151.852957	648.0899475	1290.777763	-72.89581202	621.7090835	1260.033125	-144.0380039	553.3708779	1259.67929	-128.7803171	475.2571602	1264.114375	-28.27664901	462.081159	1255.237427	-139.9773559	398.2663296	1323.355146	-92.759033	375.5125	1277.449215	-148.0192813	326.4584149	1307.997519	-126.2596959	80.82000759	1313.246339	-48.83628676	94.10344244	1247.367448	-81.79932302	58.58490678	1373.83768	-50.48617332	75.6090235	1370.135277	-145.6838404	57.85456848	1450.626946	-153.7519611	40.9498141	1452.058717	-57.55224411	52.6433374	1506.014764	-85.7250635	56.01482515	1116.371591	155.8898652	621.3785593	1175.651915	93.1736068	577.9941549	1095.436525	143.1256019	533.366562	1058.319337	130.2344758	429.9207323	1059.408395	33.90932835	430.3591051	1020.323811	146.028905	370.6403678	1020.627139	97.96343807	312.8195219	984.4354748	155.397025	352.3287234	816.3511091	125.837295	137.7700469	832.3051613	46.58044596	150.6573283	760.6031531	79.29350631	184.0051852	859.1964146	55.87355549	67.11462944	848.8695983	143.3687015	79.74009256	868.4399883	152.6622596	23.24453971	877.9984676	62.03409965	11.5300844	906.2022257	84.48225282	-21.78859102
61	0.63333	1230.07082	-0.000992919	1.22E+03	1119.282464	-160.4625222	1343.479412	1123.362941	163.6853836	1356.790192	1225.27158	-9.995724821	1594.105754	1215.323707	-119.563877	887.0082379	1220.617665	121.1976851	879.1589776	1036.647232	-5.695750883	900.9173473	1236.823689	-151.852957	648.7615744	1301.221761	-72.89581202	622.1217787	1270.202825	-144.0380039	553.90764	1269.535174	-128.7803171	475.7959742	1273.91729	-28.27664901	462.6022616	1264.013091	-139.9773559	399.0865651	1331.59518	-92.759033	374.7879734	1284.584459	-148.0192813	326.791621	1309.533038	-126.2596959	80.52145538	1315.082887	-48.83628676	93.68196174	1248.78381	-81.79932302	58.77185587	1375.39977	-50.48617332	74.67590032	1371.540366	-145.6838404	56.95491126	1451.879255	-153.7519611	39.33837627	1453.41447	-57.55224411	51.0187687	1507.398246	-85.7250635	53.912552	1130.340821	155.8898652	622.615074	1190.316126	93.1736068	580.1966091	1110.834157	143.1256019	534.2755093	1075.397497	130.2344758	430.2420124	1076.479311	33.90932835	430.6979687	1036.808814	146.028905	371.3672043	1035.940489	97.96343807	313.5520831	1000.556808	155.397025	353.786504	828.1594711	125.837295	142.6776745	844.3713755	46.58044596	155.2390423	776.2792085	79.29350631	193.4875594	864.518546	55.87355549	68.59619647	855.3088872	143.3687015	82.05827788	869.9778243	152.6622596	24.09648062	878.4998411	62.03409965	11.60775699	903.7519316	84.48225282	-24.00007962
62	0.64167	1240.647216	-0.000992919	1.22E+03	1129.819845	-160.4625222	1344.706244	1133.896002	163.6853836	1358.018347	1235.727619	-9.995724821	1595.366969	1226.113994	-119.563877	888.503166	1231.426902	121.1976851	880.6667195	1047.404434	-5.695750883	901.9805256	1247.029149	-151.852957	649.4163864	1311.282234	-72.89581202	622.4287688	1279.894906	-144.0380039	554.383352	1278.804902	-128.7803171	476.2764382	1283.115613	-28.27664901	463.0592236	1272.198137	-139.9773559	399.8409954	1339.235353	-92.759033	374.0772223	1291.191119	-148.0192813	327.1154374	1310.773669	-126.2596959	80.36059994	1316.608644	-48.83628676	93.39719515	1249.967631	-81.79932302	58.94289444	1376.683212	-50.48617332	74.03268457	1372.709971	-145.6838404	56.33687107	1452.933956	-153.7519611	38.20425738	1454.544225	-57.55224411	49.87453964	1508.545487	-85.7250635	52.4212391	1144.397324	155.8898652	624.0500399	1205.105576	93.1736068	582.6873573	1126.439178	143.1256019	535.3827198	1092.828047	130.2344758	430.7451684	1093.901718	33.90932835	431.2199817	1053.715339	146.028905	372.2558977	1051.718705	97.96343807	314.4687392	1017.127087	155.397025	355.3861375	840.6420304	125.837295	147.6824918	857.0960275	46.58044596	159.9250318	792.835799	79.29350631	202.5689877	870.5105695	55.87355549	70.84707123	862.4386478	143.3687015	85.02062173	872.2935361	152.6622596	26.04919784	879.7601519	62.03409965	12.90223477	901.9998549	84.48225282	-24.66080167
63	0.65	1251.163683	-0.000992919	1.23E+03	1140.319254	-160.4625222	1346.05631	1144.393521	163.6853836	1359.368992	1246.191448	-9.995724821	1596.732066	1236.777692	-119.563877	890.0933182	1242.10735	121.1976851	882.2682541	1058.039712	-5.695750883	903.1883861	1256.862651	-151.852957	650.0330282	1320.929025	-72.89581202	622.6051194	1289.075485	-144.0380039	554.7766953	1287.44951	-128.7803171	476.6791006	1291.669418	-28.27664901	463.4326157	1279.760006	-139.9773559	400.5046187	1346.253663	-92.759033	373.3687776	1297.254583	-148.0192813	327.4041405	1311.76258	-126.2596959	80.29901295	1317.864204	-48.83628676	93.21295618	1250.949062	-81.79932302	59.08179558	1377.72906	-50.48617332	73.62044516	1373.67891	-145.6838404	55.94207582	1453.82329	-153.7519611	37.46079526	1455.484289	-57.55224411	49.12396526	1509.496115	-85.7250635	51.43582673	1158.492441	155.8898652	625.6752663	1219.959755	93.1736068	585.4492475	1142.187099	143.1256019	536.6891748	1110.528614	130.2344758	431.4443857	1111.593265	33.90932835	431.9390929	1070.968132	146.028905	373.3160161	1067.897182	97.96343807	315.5759823	1034.072483	155.397025	357.1296009	853.7553052	125.837295	152.7439478	870.43413	46.58044596	164.6783774	810.0302715	79.29350631	211.1156582	877.4024241	55.87355549	73.83847041	870.4382475	143.3687015	88.5879008	875.7536927	152.6622596	29.03545584	882.1928577	62.03409965	15.35590384	901.4943098	84.48225282	-23.79815144
